<?xml version="1.0" standalone="no"?>
<!DOCTYPE svg PUBLIC "-//W3C//DTD SVG 20010904//EN"
 "http://www.w3.org/TR/2001/REC-SVG-20010904/DTD/svg10.dtd">
<svg version="1.0" xmlns="http://www.w3.org/2000/svg"
 width="512.000000pt" height="512.000000pt" viewBox="0 0 512.000000 512.000000"
 preserveAspectRatio="xMidYMid meet">

<g transform="translate(0.000000,512.000000) scale(0.100000,-0.100000)"
fill="#9e264c" stroke="none">
<path d="M2325 5109 c-471 -45 -932 -224 -1314 -512 -119 -90 -319 -282 -423
-407 -305 -365 -500 -814 -570 -1310 -21 -154 -16 -514 11 -689 44 -287 111
-501 241 -766 133 -271 290 -486 516 -705 196 -191 399 -333 649 -455 872
-426 1883 -330 2665 253 149 111 391 353 502 502 319 427 489 907 514 1445 14
318 -47 685 -167 1002 -189 500 -532 928 -982 1227 -476 316 -1077 468 -1642
415z m858 -853 c-10 -13 -58 -73 -106 -132 -89 -109 -199 -266 -252 -358 -27
-47 -24 -46 61 41 125 127 278 225 454 290 l65 24 -158 -156 c-226 -225 -381
-409 -536 -635 l-72 -105 48 -8 c96 -16 90 -12 83 -59 -21 -153 68 -289 260
-397 305 -172 481 -347 575 -570 109 -258 107 -534 -5 -777 -140 -305 -404
-500 -755 -558 -212 -35 -478 -27 -658 18 -375 95 -670 394 -738 747 -7 35
-12 125 -12 199 0 211 43 355 152 513 101 146 212 241 506 437 77 51 153 104
168 119 94 86 100 240 15 423 -48 106 -26 114 94 33 45 -30 85 -52 88 -50 4 3
10 27 14 55 10 77 52 231 93 339 37 100 143 324 150 317 3 -3 -36 -169 -73
-311 -3 -11 10 6 28 38 87 151 243 323 428 471 52 42 97 76 98 76 2 0 -5 -11
-15 -24z"/>
<path d="M2330 3317 c0 -1 16 -41 37 -87 33 -77 36 -94 37 -180 1 -104 -2
-113 -66 -197 -44 -58 -102 -105 -228 -183 -116 -72 -303 -224 -390 -317 -84
-90 -148 -213 -177 -338 -24 -110 -24 -324 1 -415 68 -249 256 -472 489 -584
126 -60 154 -66 81 -17 -138 92 -323 385 -385 606 -38 137 -18 260 65 410 77
137 184 237 406 380 58 37 116 77 129 89 33 30 73 114 111 231 17 55 33 102
36 104 16 16 -50 -238 -75 -286 -28 -55 -57 -81 -208 -185 -270 -185 -392
-335 -443 -546 -37 -158 112 -493 321 -716 76 -81 126 -113 224 -141 33 -10
67 -20 75 -22 8 -3 -17 13 -56 34 -142 78 -228 158 -292 273 -68 122 -94 312
-59 430 32 108 132 232 243 301 159 98 203 145 258 279 31 75 26 29 -6 -58
-29 -77 -86 -142 -179 -204 -113 -74 -211 -180 -257 -276 -61 -129 -55 -224
24 -389 53 -110 145 -229 222 -283 46 -33 213 -100 250 -100 3 0 -10 12 -31
27 -56 39 -109 127 -146 239 -31 91 -33 106 -27 185 9 133 36 206 110 297 106
130 96 43 94 852 l-3 712 -70 30 c-87 37 -115 48 -115 45z"/>
<path d="M2540 2112 c1 -723 4 -1111 10 -1100 6 9 20 56 32 105 19 74 22 117
22 268 1 160 -2 196 -28 318 -15 76 -26 140 -24 143 9 9 89 -294 99 -376 7
-61 7 -119 -1 -205 -14 -152 -32 -226 -71 -284 l-31 -46 42 40 c52 50 106 158
125 250 64 315 40 555 -79 764 -60 105 -77 171 -75 291 1 65 1 65 10 20 4 -25
12 -75 18 -112 7 -53 21 -88 61 -158 55 -95 102 -217 125 -328 30 -139 10
-407 -40 -557 -13 -38 -22 -71 -21 -73 2 -1 15 24 29 55 46 104 107 449 107
607 0 92 -30 262 -66 369 -15 45 -63 152 -106 237 -85 168 -101 225 -112 410
-4 80 -3 77 14 -44 24 -162 27 -171 111 -325 130 -239 170 -360 189 -579 16
-195 -11 -389 -89 -642 -16 -52 -17 -61 -4 -45 52 67 91 215 119 462 22 188
14 524 -15 667 -35 171 -67 247 -186 446 -90 151 -98 177 -103 362 l-4 157
-29 10 -29 10 0 -1117z"/>
<path d="M2504 1758 c-3 -13 -26 -51 -51 -86 -89 -125 -123 -244 -104 -357 14
-79 61 -195 107 -262 66 -96 64 -107 64 332 0 217 -2 395 -4 395 -3 0 -8 -10
-12 -22z"/>
</g>
</svg>
